# xmcd
#
# Track frame offsets:
#	150
#	6290
#	20075
#	36703
#	46846
#	68424
#	85086
#	97832
#	109296
#	127962
#	140570
#
# Disc length: 2151 seconds
#
# Revision: 1
# Processed by: cddbd v1.5.2PL0 Copyright (c) Steve Scherf et al.
# Submitted via: audiograbber 1.83.01
#
DISCID=8d08650b
DTITLE=Pagan Rites - Mark of the Devil
DYEAR=2003
DGENRE=Black Death
TTITLE0=Up the Pagans 
TTITLE1=Die Priest Die 
TTITLE2=Blood on My Hand 
TTITLE3=Inferno 
TTITLE4=Return to the Lake of Fire 
TTITLE5=Pagan Rites 
TTITLE6=Mark of the Devil 
TTITLE7=Hell No Longer Awaits 
TTITLE8=Lord of Fire 
TTITLE9=Retriumph with Satan from Hell 
TTITLE10=Seventh Soul Of Hell
EXTD=
EXTT0=
EXTT1=
EXTT2=
EXTT3=
EXTT4=
EXTT5=
EXTT6=
EXTT7=
EXTT8=
EXTT9=
EXTT10=
PLAYORDER=
